HIERARCHY
ROOT hip
{
  OFFSET 0 0 0
  CHANNELS 6 Xposition Yposition Zposition Zrotation Yrotation Xrotation
  JOINT abdomen
  {
    OFFSET 0 20.6881 -0.73152
    CHANNELS 3 Zrotation Xrotation Yrotation
    JOINT chest
    {
      OFFSET 0 11.7043 -0.48768
      CHANNELS 3 Zrotation Xrotation Yrotation
      JOINT neck
      {
        OFFSET 0 22.1894 -2.19456
        CHANNELS 3 Zrotation Xrotation Yrotation
        JOINT head
        {
          OFFSET -0.24384 7.07133 1.2192
          CHANNELS 3 Zrotation Xrotation Yrotation
          JOINT leftEye
          {
            OFFSET 4.14528 8.04674 8.04672
            CHANNELS 3 Zrotation Xrotation Yrotation
            End Site
            {
              OFFSET 1 0 0
            }
          }
          JOINT rightEye
          {
            OFFSET -3.6576 8.04674 8.04672
            CHANNELS 3 Zrotation Xrotation Yrotation
            End Site
            {
              OFFSET 1 0 0
            }
          }
        }
      }
      JOINT rCollar
      {
        OFFSET -2.68224 19.2634 -4.8768
        CHANNELS 3 Zrotation Xrotation Yrotation
        JOINT rShldr
        {
          OFFSET -8.77824 -1.95073 1.46304
          CHANNELS 3 Zrotation Xrotation Yrotation
          JOINT rForeArm
          {
            OFFSET -28.1742 -1.7115 0.48768
            CHANNELS 3 Zrotation Xrotation Yrotation
            JOINT rHand
            {
              OFFSET -22.5879 0.773209 7.07136
              CHANNELS 3 Zrotation Xrotation Yrotation
              JOINT rThumb1
              {
                OFFSET -1.2192 -0.487915 3.41376
                CHANNELS 3 Zrotation Xrotation Yrotation
                JOINT rThumb2
                {
                  OFFSET -3.37035 -0.52449 3.41376
                  CHANNELS 3 Zrotation Xrotation Yrotation
                  End Site
                  {
                    OFFSET -1.78271 -1.18214 1.43049
                  }
                }
              }
              JOINT rIndex1
              {
                OFFSET -7.75947 0.938293 5.60832
                CHANNELS 3 Zrotation Xrotation Yrotation
                JOINT rIndex2
                {
                  OFFSET -2.54057 -0.884171 1.56538
                  CHANNELS 3 Zrotation Xrotation Yrotation
                  End Site
                  {
                    OFFSET -1.62519 -0.234802 1.16502
                  }
                }
              }
              JOINT rMid1
              {
                OFFSET -8.24714 1.18213 3.41376
                CHANNELS 3 Zrotation Xrotation Yrotation
                JOINT rMid2
                {
                  OFFSET -3.10165 -0.590103 1.0647
                  CHANNELS 3 Zrotation Xrotation Yrotation
                  End Site
                  {
                    OFFSET -2.48547 -0.328903 0.83742
                  }
                }
              }
              JOINT rRing1
              {
                OFFSET -8.82822 0.546677 1.51678
                CHANNELS 3 Zrotation Xrotation Yrotation
                JOINT rRing2
                {
                  OFFSET -2.60934 -0.819778 -0.0198488
                  CHANNELS 3 Zrotation Xrotation Yrotation
                  End Site
                  {
                    OFFSET -2.33842 -0.294052 0.168128
                  }
                }
              }
              JOINT rPinky1
              {
                OFFSET -8.27202 -0.0477905 -0.4584
                CHANNELS 3 Zrotation Xrotation Yrotation
                JOINT rPinky2
                {
                  OFFSET -1.82734 -0.647385 -0.700984
                  CHANNELS 3 Zrotation Xrotation Yrotation
                  End Site
                  {
                    OFFSET -1.69225 -0.51767 -0.607171
                  }
                }
              }
            }
          }
        }
      }
      JOINT lCollar
      {
        OFFSET 2.68224 19.2634 -4.8768
        CHANNELS 3 Zrotation Xrotation Yrotation
        JOINT lShldr
        {
          OFFSET 8.77824 -1.95073 1.46304
          CHANNELS 3 Zrotation Xrotation Yrotation
          JOINT lForeArm
          {
            OFFSET 28.1742 -1.7115 0.48768
            CHANNELS 3 Zrotation Xrotation Yrotation
            JOINT lHand
            {
              OFFSET 22.5879 0.773209 7.07136
              CHANNELS 3 Zrotation Xrotation Yrotation
              JOINT lThumb1
              {
                OFFSET 1.2192 -0.487915 3.41376
                CHANNELS 3 Zrotation Xrotation Yrotation
                JOINT lThumb2
                {
                  OFFSET 3.37035 -0.52449 3.41376
                  CHANNELS 3 Zrotation Xrotation Yrotation
                  End Site
                  {
                    OFFSET 1.78271 -1.18214 1.43049
                  }
                }
              }
              JOINT lIndex1
              {
                OFFSET 7.75947 0.938293 5.60832
                CHANNELS 3 Zrotation Xrotation Yrotation
                JOINT lIndex2
                {
                  OFFSET 2.54057 -0.884171 1.56538
                  CHANNELS 3 Zrotation Xrotation Yrotation
                  End Site
                  {
                    OFFSET 1.62519 -0.234802 1.16502
                  }
                }
              }
              JOINT lMid1
              {
                OFFSET 8.24714 1.18213 3.41376
                CHANNELS 3 Zrotation Xrotation Yrotation
                JOINT lMid2
                {
                  OFFSET 3.10165 -0.590103 1.0647
                  CHANNELS 3 Zrotation Xrotation Yrotation
                  End Site
                  {
                    OFFSET 2.48547 -0.328903 0.83742
                  }
                }
              }
              JOINT lRing1
              {
                OFFSET 8.82822 0.546677 1.51678
                CHANNELS 3 Zrotation Xrotation Yrotation
                JOINT lRing2
                {
                  OFFSET 2.60934 -0.819778 -0.0198488
                  CHANNELS 3 Zrotation Xrotation Yrotation
                  End Site
                  {
                    OFFSET 2.33842 -0.294052 0.168128
                  }
                }
              }
              JOINT lPinky1
              {
                OFFSET 8.27202 -0.0477905 -0.4584
                CHANNELS 3 Zrotation Xrotation Yrotation
                JOINT lPinky2
                {
                  OFFSET 1.82734 -0.647385 -0.700984
                  CHANNELS 3 Zrotation Xrotation Yrotation
                  End Site
                  {
                    OFFSET 1.69225 -0.51767 -0.607171
                  }
                }
              }
            }
          }
        }
      }
    }
  }
  JOINT rButtock
  {
    OFFSET -8.77824 4.35084 1.2192
    CHANNELS 3 Zrotation Xrotation Yrotation
    JOINT rThigh
    {
      OFFSET 0 -1.70687 -2.19456
      CHANNELS 3 Zrotation Xrotation Yrotation
      JOINT rShin
      {
        OFFSET 0 -36.8199 0.73152
        CHANNELS 3 Zrotation Xrotation Yrotation
        JOINT rFoot
        {
          OFFSET 0.73152 -45.1104 -5.12064
          CHANNELS 3 Zrotation Xrotation Yrotation
          End Site
          {
            OFFSET -1.1221 -3.69964 12.103
          }
        }
      }
    }
  }
  JOINT lButtock
  {
    OFFSET 8.77824 4.35084 1.2192
    CHANNELS 3 Zrotation Xrotation Yrotation
    JOINT lThigh
    {
      OFFSET 0 -1.70687 -2.19456
      CHANNELS 3 Zrotation Xrotation Yrotation
      JOINT lShin
      {
        OFFSET 0 -36.8199 0.73152
        CHANNELS 3 Zrotation Xrotation Yrotation
        JOINT lFoot
        {
          OFFSET -0.73152 -45.1104 -5.12064
          CHANNELS 3 Zrotation Xrotation Yrotation
          End Site
          {
            OFFSET 1.1221 -3.69964 12.103
          }
        }
      }
    }
  }
}
MOTION
Frames:	4
Frame Time:	0.03333333333333333
130.45992 82.03669 -36.264347 0.17124137 24.249851 7.6290684 1.4955434 -4.7562957 1.2355282 0.31097123 0.84743094 -0.22105059 -4.1155834 7.4266906 -10.815257 0.28256875 -0.9855374 -19.823227 -0.014251936 0.07033872 -0.07567908 -0.10371866 -0.058405798 0.0003450846 0.031907827 -0.11344148 0.0501306 76.97246 14.928064 -2.6242504 -26.546343 -43.83681 91.54081 -0.66878116 -20.701015 -3.283908 -0.039324973 0.004285463 0.01037059 0.027351385 0.06562523 0.057865147 -0.070498325 -0.027801055 0.016938709 7.5115137 5.2457867 0.418432 -0.020642385 -0.009453301 -0.082765184 2.609912 0.9082356 0.03483172 -0.043788873 -0.005464378 0.012445511 10.036985 0.7339739 -0.04311135 -0.04368263 0.05386823 -0.02368795 2.0376031 -0.7110742 -0.18548226 -0.013607817 0.007249552 -0.0040245554 -95.4794 58.63537 17.076786 26.789501 -24.424482 -57.880733 0.23328628 -15.431656 1.8988792 -0.012572483 0.019585513 -0.0655124 0.047232248 -0.0017502359 -0.093686976 -0.0075459713 -0.006958055 -0.029593341 -7.5093956 5.284778 -0.40924484 0.013699865 0.04650134 0.044144202 -2.7650406 0.8502228 -0.06613346 -0.04265442 -0.027759328 -0.032830425 -10.161427 0.72370356 -0.023473492 -0.015096345 -0.019730307 0.0037002547 -2.0824764 -0.6608157 0.1391625 0.05868194 0.07652306 0.01897664 -27.260567 -20.150723 -13.977998 -0.9452148 28.413443 1.2689028 -0.01707035 4.1504383 -28.273998 -0.060599595 0.019544318 0.023339076 6.8255982 -17.65518 9.71467 -0.2781217 21.756868 -0.47757983 8.674086 -14.480955 23.698017
130.62094 82.12905 -36.73078 -0.65421426 23.908865 8.036053 1.9667695 -4.7112527 0.9716853 0.43925947 0.64625627 -0.2142192 -4.396078 7.696576 -10.782177 0.364915 -1.0577123 -19.757977 -0.016488502 0.07604654 -0.0833261 -0.10695457 -0.060279112 -0.0033827843 0.02942288 -0.11240063 0.048860796 76.704636 13.600297 -2.879103 -26.63729 -43.423176 90.74773 -0.7464318 -20.974884 -3.5502894 -0.043440722 0.008755128 0.010141068 0.02339281 0.06514607 0.05710689 -0.070336804 -0.030640334 0.017745044 7.52448 5.2576985 0.42226148 -0.025239749 -0.008343609 -0.08353337 2.6192343 0.91257364 0.033857673 -0.048454426 -0.0018066583 0.019820115 10.050455 0.7404598 -0.03785072 -0.041551452 0.05174279 -0.02171936 2.04808 -0.71287084 -0.18530665 -0.01605692 0.0024465416 -0.00816429 -95.70953 57.774178 18.212048 26.516455 -24.282997 -57.849556 0.10619151 -14.092468 1.607724 -0.013179223 0.013229756 -0.06652844 0.04742403 -0.004070366 -0.09019488 -0.0005643977 -0.0031479967 -0.034790687 -7.5198627 5.291494 -0.41196358 0.00943153 0.04355286 0.0374281 -2.7713203 0.8559409 -0.06391541 -0.04116064 -0.02791973 -0.030922666 -10.174625 0.7309706 -0.024698656 -0.020575784 -0.02445445 -0.004222124 -2.089817 -0.66584086 0.14617431 0.059888963 0.076315984 0.02108514 -26.349085 -18.708584 -12.327001 -0.89805245 25.455963 1.1879231 -0.2746372 3.4596164 -30.322197 -0.064544216 0.014997227 0.022364734 6.9344983 -18.00153 9.594442 -0.39004374 21.773762 -0.4940771 8.86652 -14.510238 24.66611
130.76862 82.10214 -37.108288 -1.0641195 23.72126 8.450288 2.2525966 -4.829289 0.47492933 0.7054744 0.528047 -0.2164605 -4.6352553 7.96741 -10.738839 0.36020026 -1.2590716 -19.595455 -0.018654099 0.079696186 -0.089911535 -0.107328415 -0.06024215 -0.0057829823 0.026176019 -0.10876563 0.048001286 76.12112 12.48851 -2.8914611 -26.74602 -43.14494 90.10114 -0.7374104 -20.984484 -3.596304 -0.04677185 0.012920316 0.010971529 0.021541828 0.06310342 0.053073984 -0.06806417 -0.031867154 0.018823307 7.5221286 5.2554297 0.42471159 -0.029781144 -0.006152506 -0.084008604 2.623747 0.91187996 0.03400004 -0.05008823 0.0004545077 0.025043555 10.042067 0.7453995 -0.032223605 -0.040150944 0.04945177 -0.022790419 2.052697 -0.71253246 -0.18664056 -0.018801322 -0.0023971295 -0.011640563 -95.83759 57.05389 19.252962 26.213459 -24.179419 -57.82194 -0.060340982 -13.00376 1.3459339 -0.014502918 0.008882394 -0.06756674 0.044862602 -0.0035535125 -0.08914426 0.004295869 -0.00018592254 -0.037904933 -7.5123463 5.2873583 -0.41233435 0.0052912617 0.041791044 0.030911246 -2.7681293 0.8597136 -0.06390388 -0.04160887 -0.026246015 -0.029201886 -10.16517 0.73373055 -0.025188083 -0.024345035 -0.027338523 -0.01072868 -2.0908945 -0.66962403 0.15278706 0.05955295 0.07715119 0.022864724 -25.639095 -17.767363 -11.217418 -0.90233153 23.347849 1.1584634 -0.35508487 3.2433662 -31.635529 -0.067269035 0.010063003 0.01994271 6.80252 -18.39949 9.370748 -0.4637192 22.199196 -0.4898859 8.979055 -14.63781 25.072107
130.83368 82.13145 -37.39552 -1.2618022 23.648308 8.658769 2.3016908 -5.068364 -0.21580179 1.0484338 0.46589145 -0.24752434 -4.792926 8.293769 -10.760179 0.39173567 -1.5881518 -19.476164 -0.019884601 0.0820393 -0.09584189 -0.10815422 -0.059119534 -0.007722889 0.023058757 -0.10561686 0.045362245 75.691635 11.7208805 -2.9822624 -26.907219 -43.281128 90.17464 -0.75390214 -20.84815 -3.6006472 -0.050193936 0.015438948 0.014240575 0.018523365 0.06128611 0.050358128 -0.06768867 -0.034816515 0.01956657 7.524667 5.257109 0.42727873 -0.032170456 -0.0047368426 -0.08813724 2.6280847 0.91090363 0.032207116 -0.05167822 0.0029450054 0.030008888 10.041284 0.7474534 -0.027364565 -0.038913827 0.047712177 -0.02329009 2.055251 -0.71108234 -0.18733612 -0.021583237 -0.004309369 -0.014433843 -96.05197 56.582554 20.131062 25.98387 -24.13478 -57.868877 -0.2478429 -12.242244 1.1167862 -0.015644494 0.004799915 -0.06825557 0.043888126 -0.003356611 -0.088455744 0.00968969 0.0024235565 -0.04161773 -7.5106215 5.284851 -0.4116001 0.0033343595 0.041186813 0.026270881 -2.7668576 0.8604552 -0.06472554 -0.041953903 -0.026316024 -0.026901552 -10.1632395 0.7347678 -0.02760805 -0.027954616 -0.028738473 -0.015735261 -2.0915143 -0.6711501 0.1589601 0.05950076 0.07848419 0.022818727 -25.058994 -17.344019 -10.5576935 -0.93602127 22.048622 1.156689 -0.4571215 3.2118795 -32.379833 -0.07019334 0.0045573367 0.017343424 6.5286984 -18.944506 9.114298 -0.5131826 22.95161 -0.471759 9.044873 -14.766854 25.065075
